<?xml version="1.0" encoding="UTF-8"?>
<!DOCTYPE svg PUBLIC "-//W3C//DTD SVG 1.1//EN" "http://www.w3.org/Graphics/SVG/1.1/DTD/svg11.dtd">
<!-- Creator: CorelDRAW 2021 (64-Bit) -->
<svg xmlns="http://www.w3.org/2000/svg" xml:space="preserve" width="348.048mm" height="70.5555mm" version="1.1" style="shape-rendering:geometricPrecision; text-rendering:geometricPrecision; image-rendering:optimizeQuality; fill-rule:evenodd; clip-rule:evenodd"
viewBox="0 0 76307.26 15468.82"
 xmlns:xlink="http://www.w3.org/1999/xlink"
 xmlns:xodm="http://www.corel.com/coreldraw/odm/2003">
 <defs>
  <style type="text/css">
   <![CDATA[
    .fil3 {fill:#F7AF08}
    .fil0 {fill:#005A23;fill-rule:nonzero}
    .fil4 {fill:#005A23;fill-rule:nonzero}
    .fil1 {fill:#08A616;fill-rule:nonzero}
    .fil5 {fill:#333333;fill-rule:nonzero}
    .fil2 {fill:#F7AF08;fill-rule:nonzero}
   ]]>
  </style>
 </defs>
 <g id="Capa_x0020_1">
  <metadata id="CorelCorpID_0Corel-Layer"/>
  <path class="fil0" d="M10078.57 15468.82c0,0 -4475.92,-3515.61 -9312.45,-2411.3l482.51 -1995.29c0,0 460.89,0 912.75,157.75l-197.6 1087.45c0,0 4384.82,-560.71 8114.79,3161.4z"/>
  <path class="fil1" d="M10078.57 15468.82c0,0 -4000.99,-4943.19 -10078.57,-4943.19l3407.04 -10166.16c0,0 276.88,44.46 1069.49,346.67l-2893.7 8616.06c0,0 6073.24,1725.86 8495.74,6146.62z"/>
  <path class="fil2" d="M10078.57 15468.82c-1982.57,-5784.65 -7490.62,-7009.38 -7490.62,-7009.38l2834.44 -8459.44c442.5,134.48 847.2,300.32 1216.49,487.55 646.37,327.75 1184.51,721.14 1628.14,1126.82l-473.46 1271.33c0,0 -509.13,-1048.14 -1741.8,-1145.24l-2020.22 5846.47c0,0 4443.8,977.89 6047.02,7881.88z"/>
  <path class="fil0" d="M13005.97 15468.82c0,0 4475.92,-3515.61 9312.45,-2411.3l-482.55 -1995.29c0,0 -460.85,0 -912.69,157.75l197.6 1087.45c0,0 -4384.82,-560.71 -8114.81,3161.4z"/>
  <path class="fil1" d="M13005.97 15468.82c0,0 4000.95,-4943.19 10078.59,-4943.19l-3407.04 -10166.16c0,0 -276.93,44.46 -1069.49,346.67l2893.68 8616.06c0,0 -6073.21,1725.86 -8495.74,6146.62z"/>
  <path class="fil2" d="M13005.97 15468.82c1982.55,-5784.65 7490.62,-7009.38 7490.62,-7009.38l-2834.44 -8459.44c-442.5,134.48 -847.18,300.32 -1216.49,487.55 -646.35,327.75 -1184.51,721.14 -1628.14,1126.82l473.48 1271.33c0,0 509.1,-1048.14 1741.78,-1145.24l2020.22 5846.47c0,0 -4443.84,977.89 -6047.02,7881.88z"/>
  <g id="_2358959522160">
   <path class="fil3" d="M11501.48 13345.78c0.83,-3.09 0.83,-6.27 1.69,-9.34 -0.86,3.07 -0.86,6.16 -1.69,9.34zm0 0c0,0 1283.6,-974.05 493.41,-2638.53 -790.17,-1664.5 -2202.89,-2109.78 -3191.48,-3090.06 -159.89,-158.71 -306.13,-342.57 -437.83,-539.19 0,0 -209.53,1173.65 751.68,1968.43 87.24,72.15 171.89,143.47 254.85,213.87 21.38,12.56 937.27,557.4 1777.91,1542.27 818.39,959.26 351.47,2543.2 351.47,2543.2zm2.57 -14.89c0,-1.18 0,-2.57 0.83,-3.77 -0.83,1.29 -0.83,2.48 -0.83,3.77zm1.69 -10.26c0,-0.94 0,-1.8 0,-2.74 0,0.94 0,1.86 0,2.74zm1.73 -9.93c0,-0.68 0,-1.36 0,-1.97 0,0.7 0,1.21 0,1.97zm0.83 -9.76c0,-0.5 0,-0.83 0,-1.36 0,0.42 0,0.94 0,1.36zm1.73 -9.82c0,-0.09 0,-0.42 0,-0.53 0,0.11 0,0.44 0,0.53z"/>
   <path class="fil3" d="M11503.17 13336.44c0,-1.8 0.88,-3.66 0.88,-5.55 0,1.95 -0.88,3.57 -0.88,5.55zm1.71 -9.32c0,-2.13 0,-4.36 0.86,-6.49 -0.86,2.13 -0.86,4.36 -0.86,6.49zm0.86 -9.23c0.88,-2.39 0.88,-4.8 1.73,-7.19 -0.86,2.32 -0.86,4.8 -1.73,7.19zm1.73 -9.16c0,-2.63 0.83,-5.22 0.83,-7.78 0,2.57 -0.83,5.15 -0.83,7.78zm0.83 -9.14c0.86,-2.89 0.86,-5.55 1.73,-8.46 -0.88,2.83 -0.88,5.57 -1.73,8.46zm1.73 -8.99c218.04,-1542.71 -472.93,-2610.38 -2137.93,-4030.28 0,-0.09 -0.86,-0.18 -0.86,-0.18l0.86 1.47c1663.29,1418.72 2355.97,2487.05 2137.93,4028.99z"/>
   <path class="fil3" d="M11501.48 13345.78c0,0 466.92,-1583.95 -351.47,-2543.2 -840.64,-984.86 -1756.53,-1529.7 -1777.91,-1542.27 1665,1419.91 2355.97,2487.58 2137.93,4030.28 0,0.11 0,0.44 0,0.53 -0.88,2.92 -0.88,5.57 -1.73,8.46 0,0.53 0,0.86 0,1.36 0,2.57 -0.83,5.15 -0.83,7.78 0,0.61 0,1.29 0,1.97 -0.86,2.39 -0.86,4.8 -1.73,7.19 0,0.94 0,1.8 0,2.74 -0.86,2.13 -0.86,4.36 -0.86,6.49 -0.83,1.21 -0.83,2.59 -0.83,3.77 0,1.89 -0.88,3.75 -0.88,5.55 -0.86,3.07 -0.86,6.25 -1.69,9.34z"/>
   <path class="fil3" d="M12755.99 13132.85c0,-2.5 0,-4.8 0.88,-7.28 -0.88,2.48 -0.88,4.78 -0.88,7.28zm0 0c0,0 1975.86,-1499.89 758.54,-4062.91 -1216.91,-2562.93 -3391.58,-3248.59 -4913.77,-4757.97 -246.3,-244.46 -471.2,-527.52 -673.89,-830.16 0,0 -323.25,1807.03 1157.06,3030.86 134.24,111.16 265.09,220.91 392.51,329.24 27.36,16.27 1440.1,855.51 2737.38,2374.97 1260.52,1477.02 542.17,3915.97 542.17,3915.97zm0.88 -9.69c0.83,-1.62 0.83,-3.14 0.83,-4.8 0,1.56 0,3.29 -0.83,4.8zm1.69 -8.73c0,-1.01 0,-2.13 0,-3.24 0,0.94 0,2.3 0,3.24zm0.86 -7.5c0,-0.96 0.86,-2.06 0.86,-2.92 0,0.94 -0.86,1.95 -0.86,2.92zm0.86 -6.95c0.86,-1.12 0.86,-2.06 0.86,-3.24 0,1.03 0,2.24 -0.86,3.24zm1.71 -7.67c0,-0.79 0,-1.82 0,-2.57 0,0.92 0,1.62 0,2.57zm0.88 -7.72c0,-0.59 0,-1.18 0,-1.8 0,0.61 0,1.21 0,1.8zm0.83 -7.61c0,-0.44 0.86,-0.77 0.86,-1.18 0,0.5 -0.86,0.75 -0.86,1.18zm1.71 -6.84c0,-0.44 0,-1.12 0,-1.53 0,0.59 0,0.94 0,1.53zm0.88 -7.78c0,-0.15 0,-0.26 0,-0.33 0,0.07 0,0.18 0,0.33z"/>
   <path class="fil3" d="M12756.87 13125.57c0,-0.79 0,-1.62 0,-2.41 0,0.79 0,1.62 0,2.41zm0.83 -7.21c0,-1.34 0.86,-2.54 0.86,-3.92 0,1.38 -0.86,2.67 -0.86,3.92zm0.86 -7.17c0.86,-1.51 0.86,-2.74 0.86,-4.25 0,1.45 0,2.81 -0.86,4.25zm1.71 -7.17c0,-1.45 0,-2.57 0,-4.03 0,1.36 0,2.65 0,4.03zm0.86 -7.28c0,-1.36 0.86,-3.07 0.86,-4.43 0,1.43 -0.86,2.98 -0.86,4.43zm0.86 -6.99c0,-1.73 0.88,-3.42 0.88,-5.15 0,1.8 0,3.42 -0.88,5.15zm0.88 -6.95c0.83,-1.89 0.83,-3.92 0.83,-5.81 0,1.89 0,3.86 -0.83,5.81zm1.69 -6.99c0,-1.8 0,-3.86 0.86,-5.66 -0.86,1.86 -0.86,3.77 -0.86,5.66zm0.86 -7.19c0,-2.04 0.88,-4.21 0.88,-6.25 0,2.04 -0.88,4.21 -0.88,6.25zm0.88 -6.58c342.06,-2382.93 -720.92,-4029.54 -3289.83,-6220.13 -0.86,-0.09 -0.86,-0.18 -0.86,-0.18l0.86 2.24c2566.35,2188.95 3631.9,3836.17 3289.83,6218.07z"/>
   <path class="fil3" d="M12755.99 13132.85c0,0 718.35,-2438.95 -542.17,-3915.97 -1297.28,-1519.47 -2710.02,-2358.71 -2737.38,-2374.97 2568.92,2190.59 3631.9,3837.2 3289.83,6220.13 0,0.07 0,0.18 0,0.33 0,2.04 -0.88,4.21 -0.88,6.25 0,0.42 0,1.1 0,1.53 -0.86,1.8 -0.86,3.86 -0.86,5.66 0,0.42 -0.86,0.75 -0.86,1.18 0,1.89 0,3.92 -0.83,5.81 0,0.61 0,1.21 0,1.8 0,1.73 -0.88,3.42 -0.88,5.15 0,0.75 0,1.78 0,2.57 0,1.36 -0.86,3.07 -0.86,4.43 0,1.18 0,2.13 -0.86,3.24 0,1.47 0,2.59 0,4.03 0,0.86 -0.86,1.95 -0.86,2.92 0,1.51 0,2.74 -0.86,4.25 0,1.12 0,2.24 0,3.24 0,1.38 -0.86,2.59 -0.86,3.92 0,1.67 0,3.18 -0.83,4.8 0,0.79 0,1.62 0,2.41 -0.88,2.48 -0.88,4.78 -0.88,7.28z"/>
   <path class="fil3" d="M14263.14 10461.98c0,0 0,-0.18 0,-0.35 0,0.18 0,0.35 0,0.35zm0 0c357.72,-2154.68 1073.33,-2580.36 896.81,-4025.79 -244.59,-2002.94 -973.26,-2954.39 -973.26,-2954.39 498.12,1338.15 -276.22,1805.07 -276.22,1805.07 -505.4,-3411.69 -2276.45,-4600.18 -2276.45,-4600.18 1252.82,1273.61 996.29,4244.09 208.68,4243.85 -65.86,0 -135.97,-20.87 -208.68,-65.27 -942.37,-575.1 -1131.38,-1801.74 -1131.38,-1801.74 -194.97,1916.69 1749.67,3603.4 1749.67,3603.4 160.77,133.15 308.72,270.92 444.69,411.61 1725.38,935.29 1566.14,3383.45 1566.14,3383.45z"/>
   <path class="fil3" d="M14263.14 10461.63c-1.45,-26.75 -104.67,-1873.39 -1566.14,-3383.1 0,-0.18 -0.86,-0.35 -0.86,-0.53l0.86 1.56c1460.62,1509.51 1564.7,3355.39 1566.14,3382.07z"/>
   <path class="fil3" d="M14263.14 10461.98c1.03,-15.65 159.24,-2448.16 -1566.14,-3383.45 1461.48,1509.71 1564.7,3356.35 1566.14,3383.1 0,0.18 0,0.35 0,0.35z"/>
  </g>
  <path class="fil4" d="M29243.48 8709.2c-503.14,0 -991.48,-62.16 -1465.03,-186.47 -473.54,-124.31 -858.29,-290.04 -1154.25,-497.22l577.11 -1296.32c278.22,183.51 600.81,331.47 967.81,443.95 366.99,112.47 728.06,168.71 1083.24,168.71 674.79,0 1012.18,-168.71 1012.18,-506.1 0,-177.59 -96.18,-309.29 -288.55,-395.12 -192.39,-85.81 -501.67,-176.1 -927.86,-270.81 -467.62,-100.61 -858.29,-208.65 -1172.01,-324.06 -313.74,-115.43 -583.06,-300.41 -807.98,-554.95 -224.94,-254.52 -337.42,-597.83 -337.42,-1029.94 0,-378.83 103.59,-720.67 310.78,-1025.51 207.16,-304.86 516.45,-546.07 927.84,-723.63 411.39,-177.59 916,-266.38 1513.85,-266.38 408.43,0 810.94,45.89 1207.53,137.62 396.61,91.75 745.84,226.41 1047.72,404l-541.62 1305.2c-591.91,-319.63 -1166.09,-479.46 -1722.51,-479.46 -349.23,0 -603.75,51.81 -763.58,155.38 -159.83,103.59 -239.74,238.25 -239.74,404 0,165.75 94.71,290.04 284.14,372.91 189.4,82.87 494.26,168.71 914.53,257.5 473.54,100.61 865.68,208.65 1176.46,324.06 310.76,115.43 580.07,298.94 807.98,550.5 227.88,251.56 341.82,593.4 341.82,1025.51 0,372.91 -103.57,710.33 -310.76,1012.2 -207.16,301.88 -517.94,543.09 -932.29,723.63 -414.35,180.52 -917.49,270.81 -1509.4,270.81z"/>
  <polygon id="_1" class="fil4" points="34095.82,2369.65 35853.84,2369.65 35853.84,8584.89 34095.82,8584.89 "/>
  <path id="_2" class="fil4" d="M40581.87 8709.2c-503.14,0 -991.48,-62.16 -1465.03,-186.47 -473.54,-124.31 -858.29,-290.04 -1154.25,-497.22l577.11 -1296.32c278.22,183.51 600.81,331.47 967.81,443.95 366.99,112.47 728.06,168.71 1083.24,168.71 674.79,0 1012.18,-168.71 1012.18,-506.1 0,-177.59 -96.18,-309.29 -288.55,-395.12 -192.39,-85.81 -501.67,-176.1 -927.86,-270.81 -467.62,-100.61 -858.29,-208.65 -1172.01,-324.06 -313.74,-115.43 -583.06,-300.41 -807.98,-554.95 -224.94,-254.52 -337.42,-597.83 -337.42,-1029.94 0,-378.83 103.59,-720.67 310.78,-1025.51 207.16,-304.86 516.45,-546.07 927.84,-723.63 411.39,-177.59 916,-266.38 1513.85,-266.38 408.43,0 810.94,45.89 1207.53,137.62 396.61,91.75 745.84,226.41 1047.72,404l-541.62 1305.2c-591.91,-319.63 -1166.09,-479.46 -1722.51,-479.46 -349.23,0 -603.75,51.81 -763.58,155.38 -159.83,103.59 -239.74,238.25 -239.74,404 0,165.75 94.71,290.04 284.14,372.91 189.4,82.87 494.26,168.71 914.53,257.5 473.54,100.61 865.68,208.65 1176.46,324.06 310.76,115.43 580.07,298.94 807.98,550.5 227.88,251.56 341.82,593.4 341.82,1025.51 0,372.91 -103.57,710.33 -310.76,1012.2 -207.16,301.88 -517.94,543.09 -932.29,723.63 -414.35,180.52 -917.49,270.81 -1509.4,270.81z"/>
  <path id="_3" class="fil4" d="M50211.06 5344.08c355.15,124.31 633.35,318.17 834.62,581.56 201.27,263.42 301.88,581.59 301.88,954.5 0,544.58 -219,964.85 -657.03,1260.8 -438.03,295.96 -1071.4,443.95 -1900.09,443.95l-3356.22 0 0 -6215.24 3178.63 0c793.2,0 1396.95,146.5 1811.3,439.52 414.35,293 621.53,688.1 621.53,1185.32 0,295.98 -72.5,560.87 -217.53,794.67 -145.03,233.82 -350.72,418.8 -617.08,554.93zm-3036.59 -1704.75l0 1198.65 1207.53 0c591.93,0 887.89,-201.24 887.89,-603.75 0,-396.59 -295.96,-594.89 -887.89,-594.89l-1207.53 0zm1473.89 3675.88c615.61,0 923.41,-210.14 923.41,-630.41 0,-420.27 -307.8,-630.39 -923.41,-630.39l-1473.89 0 0 1260.8 1473.89 0z"/>
  <polygon id="_4" class="fil4" points="53553.99,2369.65 55312.02,2369.65 55312.02,8584.89 53553.99,8584.89 "/>
  <path class="fil5" d="M27311.58 11754.99c-135.08,0 -265.46,-20.94 -391.15,-62.84 -125.67,-41.9 -224.44,-96.2 -296.24,-162.88l94.89 -200.08c68.4,61.56 156.04,111.59 262.92,150.05 106.88,38.48 216.74,57.73 329.59,57.73 148.78,0 259.91,-25.23 333.45,-75.68 73.53,-50.43 110.3,-117.56 110.3,-201.33 0,-61.56 -20.1,-111.57 -60.29,-150.05 -40.17,-38.48 -89.76,-67.99 -148.76,-88.49 -59,-20.52 -142.35,-43.61 -250.09,-69.26 -135.08,-32.49 -244.08,-64.98 -327.02,-97.48 -82.94,-32.49 -153.91,-82.5 -212.89,-150.05 -59,-67.55 -88.51,-158.6 -88.51,-273.16 0,-95.77 25.23,-182.13 75.68,-259.08 50.45,-76.93 126.96,-138.5 229.55,-184.67 102.61,-46.17 230.01,-69.26 382.18,-69.26 106.03,0 210.32,13.68 312.93,41.04 102.61,27.36 190.65,66.69 264.19,118l-84.65 205.19c-75.22,-47.88 -155.6,-84.21 -241.1,-109.01 -85.5,-24.8 -169.28,-37.18 -251.36,-37.18 -145.34,0 -254.37,26.51 -327.02,79.5 -72.68,53.01 -109.01,121.42 -109.01,205.21 0,61.54 20.52,111.57 61.54,150.05 41.04,38.46 91.93,68.38 152.62,89.76 60.71,21.38 143.21,44.05 247.53,67.99 135.1,32.47 243.67,64.96 325.75,97.45 82.08,32.49 152.62,82.08 211.61,148.78 58.98,66.67 88.49,156.45 88.49,269.32 0,94.03 -25.65,179.98 -76.95,257.76 -51.3,77.81 -129.09,139.37 -233.41,184.69 -104.32,45.32 -232.55,67.97 -384.75,67.97z"/>
  <polygon id="_1_0" class="fil5" points="28381.15,9939 28637.65,9939 28637.65,11734.47 28381.15,11734.47 "/>
  <path id="_2_1" class="fil5" d="M29699.53 11754.99c-135.08,0 -265.46,-20.94 -391.15,-62.84 -125.67,-41.9 -224.44,-96.2 -296.24,-162.88l94.89 -200.08c68.4,61.56 156.04,111.59 262.92,150.05 106.88,38.48 216.74,57.73 329.59,57.73 148.78,0 259.91,-25.23 333.45,-75.68 73.53,-50.43 110.3,-117.56 110.3,-201.33 0,-61.56 -20.1,-111.57 -60.29,-150.05 -40.17,-38.48 -89.76,-67.99 -148.76,-88.49 -59,-20.52 -142.35,-43.61 -250.09,-69.26 -135.08,-32.49 -244.08,-64.98 -327.02,-97.48 -82.94,-32.49 -153.91,-82.5 -212.89,-150.05 -59,-67.55 -88.51,-158.6 -88.51,-273.16 0,-95.77 25.23,-182.13 75.68,-259.08 50.45,-76.93 126.96,-138.5 229.55,-184.67 102.61,-46.17 230.01,-69.26 382.18,-69.26 106.03,0 210.32,13.68 312.93,41.04 102.61,27.36 190.65,66.69 264.19,118l-84.65 205.19c-75.22,-47.88 -155.6,-84.21 -241.1,-109.01 -85.5,-24.8 -169.28,-37.18 -251.36,-37.18 -145.34,0 -254.37,26.51 -327.02,79.5 -72.68,53.01 -109.01,121.42 -109.01,205.21 0,61.54 20.52,111.57 61.54,150.05 41.04,38.46 91.93,68.38 152.62,89.76 60.71,21.38 143.21,44.05 247.53,67.99 135.1,32.47 243.67,64.96 325.75,97.45 82.08,32.49 152.62,82.08 211.61,148.78 58.98,66.67 88.49,156.45 88.49,269.32 0,94.03 -25.65,179.98 -76.95,257.76 -51.3,77.81 -129.09,139.37 -233.41,184.69 -104.32,45.32 -232.55,67.97 -384.75,67.97z"/>
  <polygon id="_3_2" class="fil5" points="31100.01,10162.17 30484.42,10162.17 30484.42,9939 31969.53,9939 31969.53,10162.17 31353.94,10162.17 31353.94,11734.47 31100.01,11734.47 "/>
  <polygon id="_4_3" class="fil5" points="33552.1,11511.33 33552.1,11734.47 32249.11,11734.47 32249.11,9939 33516.21,9939 33516.21,10162.17 32505.6,10162.17 32505.6,10713.63 33405.9,10713.63 33405.9,10931.65 32505.6,10931.65 32505.6,11511.33 "/>
  <polygon id="_5" class="fil5" points="35632.28,11734.47 35629.71,10426.36 34980.77,11516.46 34862.8,11516.46 34213.86,10434.05 34213.86,11734.47 33967.63,11734.47 33967.63,9939 34177.95,9939 34926.93,11200.96 35665.62,9939 35875.94,9939 35878.51,11734.47 "/>
  <path id="_6" class="fil5" d="M37561.11 11285.61l-954.17 0 -197.49 448.86 -264.19 0 813.09 -1795.47 253.93 0 815.65 1795.47 -269.32 0 -197.49 -448.86zm-89.78 -205.21l-387.29 -879.78 -387.32 879.78 774.61 0z"/>
  <path id="_7" class="fil5" d="M38984.66 9939l756.65 0c189.82,0 358.24,37.62 505.31,112.87 147.05,75.24 261.18,180.83 342.41,316.76 81.23,135.95 121.83,291.99 121.83,468.11 0,176.14 -40.6,332.15 -121.83,468.11 -81.23,135.95 -195.37,241.54 -342.41,316.76 -147.07,75.24 -315.49,112.87 -505.31,112.87l-756.65 0 0 -1795.47zm741.26 1572.33c145.36,0 273.18,-28.22 383.48,-84.65 110.28,-56.43 195.35,-135.51 255.2,-237.27 59.85,-101.73 89.78,-219.29 89.78,-352.67 0,-133.37 -29.93,-250.92 -89.78,-352.67 -59.85,-101.75 -144.92,-180.83 -255.2,-237.27 -110.3,-56.43 -238.12,-84.63 -383.48,-84.63l-484.77 0 0 1349.16 484.77 0z"/>
  <polygon id="_8" class="fil5" points="42406.3,11511.33 42406.3,11734.47 41103.32,11734.47 41103.32,9939 42370.41,9939 42370.41,10162.17 41359.81,10162.17 41359.81,10713.63 42260.11,10713.63 42260.11,10931.65 41359.81,10931.65 41359.81,11511.33 "/>
  <path id="_9" class="fil5" d="M44755.82 10826.48l246.23 0 0 700.24c-88.93,73.51 -192.36,129.95 -310.36,169.28 -118,39.33 -241.1,59 -369.36,59 -181.25,0 -344.56,-39.75 -489.9,-119.27 -145.36,-79.52 -259.5,-188.94 -342.41,-328.32 -82.94,-139.37 -124.4,-296.24 -124.4,-470.67 0,-174.41 41.46,-331.74 124.4,-471.94 82.92,-140.23 197.49,-249.65 343.69,-328.32 146.21,-78.66 310.8,-118 493.76,-118 143.65,0 274.03,23.52 391.15,70.55 117.14,47.01 216.74,115.85 298.83,206.46l-159.04 159.04c-143.63,-138.52 -317.2,-207.75 -520.68,-207.75 -136.79,0 -259.47,29.49 -368.07,88.49 -108.59,59 -193.66,141.06 -255.22,246.23 -61.54,105.17 -92.32,223.58 -92.32,355.24 0,129.97 30.78,247.53 92.32,352.67 61.56,105.17 146.63,187.67 255.22,247.53 108.59,59.85 230.42,89.78 365.5,89.78 160.75,0 300.96,-38.48 420.66,-115.43l0 -584.81z"/>
  <polygon id="_10" class="fil5" points="46794.94,11511.33 46794.94,11734.47 45491.95,11734.47 45491.95,9939 46759.05,9939 46759.05,10162.17 45748.45,10162.17 45748.45,10713.63 46648.75,10713.63 46648.75,10931.65 45748.45,10931.65 45748.45,11511.33 "/>
  <path id="_11" class="fil5" d="M47733.72 11754.99c-135.08,0 -265.46,-20.94 -391.15,-62.84 -125.67,-41.9 -224.44,-96.2 -296.24,-162.88l94.89 -200.08c68.4,61.56 156.04,111.59 262.92,150.05 106.88,38.48 216.74,57.73 329.59,57.73 148.78,0 259.91,-25.23 333.45,-75.68 73.53,-50.43 110.3,-117.56 110.3,-201.33 0,-61.56 -20.1,-111.57 -60.29,-150.05 -40.17,-38.48 -89.76,-67.99 -148.76,-88.49 -59,-20.52 -142.35,-43.61 -250.09,-69.26 -135.08,-32.49 -244.08,-64.98 -327.02,-97.48 -82.94,-32.49 -153.91,-82.5 -212.89,-150.05 -59,-67.55 -88.51,-158.6 -88.51,-273.16 0,-95.77 25.23,-182.13 75.68,-259.08 50.45,-76.93 126.96,-138.5 229.55,-184.67 102.61,-46.17 230.01,-69.26 382.18,-69.26 106.03,0 210.32,13.68 312.93,41.04 102.61,27.36 190.65,66.69 264.19,118l-84.65 205.19c-75.22,-47.88 -155.6,-84.21 -241.1,-109.01 -85.5,-24.8 -169.28,-37.18 -251.36,-37.18 -145.34,0 -254.37,26.51 -327.02,79.5 -72.68,53.01 -109.01,121.42 -109.01,205.21 0,61.54 20.52,111.57 61.54,150.05 41.04,38.46 91.93,68.38 152.62,89.76 60.71,21.38 143.21,44.05 247.53,67.99 135.1,32.47 243.67,64.96 325.75,97.45 82.08,32.49 152.62,82.08 211.61,148.78 58.98,66.67 88.49,156.45 88.49,269.32 0,94.03 -25.65,179.98 -76.95,257.76 -51.3,77.81 -129.09,139.37 -233.41,184.69 -104.32,45.32 -232.55,67.97 -384.75,67.97z"/>
  <polygon id="_12" class="fil5" points="49134.2,10162.17 48518.61,10162.17 48518.61,9939 50003.72,9939 50003.72,10162.17 49388.13,10162.17 49388.13,11734.47 49134.2,11734.47 "/>
  <polygon id="_13" class="fil5" points="50283.3,9939 50539.79,9939 50539.79,11734.47 50283.3,11734.47 "/>
  <path id="_14" class="fil5" d="M51888.95 11754.99c-181.25,0 -344.56,-39.75 -489.9,-119.27 -145.36,-79.52 -259.5,-189.38 -342.41,-329.59 -82.94,-140.23 -124.4,-296.68 -124.4,-469.4 0,-172.7 41.46,-329.17 124.4,-469.38 82.92,-140.23 197.06,-250.09 342.41,-329.61 145.34,-79.5 308.65,-119.27 489.9,-119.27 179.56,0 342,39.77 487.36,119.27 145.34,79.52 259.06,188.97 341.12,328.32 82.08,139.37 123.13,296.26 123.13,470.67 0,174.43 -41.04,331.3 -123.13,470.67 -82.06,139.37 -195.78,248.8 -341.12,328.32 -145.36,79.52 -307.8,119.27 -487.36,119.27zm0 -228.28c131.68,0 250.09,-29.93 355.24,-89.78 105.17,-59.85 188.11,-142.35 248.82,-247.53 60.69,-105.15 91.05,-222.71 91.05,-352.67 0,-129.95 -30.37,-247.5 -91.05,-352.67 -60.71,-105.17 -143.65,-187.67 -248.82,-247.53 -105.15,-59.85 -223.56,-89.76 -355.24,-89.76 -131.66,0 -250.92,29.9 -357.81,89.76 -106.88,59.85 -190.65,142.35 -251.36,247.53 -60.71,105.17 -91.05,222.73 -91.05,352.67 0,129.97 30.34,247.53 91.05,352.67 60.71,105.17 144.48,187.67 251.36,247.53 106.88,59.85 226.15,89.78 357.81,89.78zm156.47 -2067.35l312.93 0 -430.92 333.45 -230.84 0 348.84 -333.45z"/>
  <polygon id="_15" class="fil5" points="54777.08,9939 54777.08,11734.47 54566.74,11734.47 53489.47,10395.57 53489.47,11734.47 53232.97,11734.47 53232.97,9939 53443.29,9939 54520.59,11277.92 54520.59,9939 "/>
  <path id="_16" class="fil5" d="M57213.8 10803.39c104.29,29.07 186.38,81.65 246.23,157.75 59.85,76.1 89.78,172.28 89.78,288.57 0,155.6 -58.58,275.3 -175.7,359.08 -117.14,83.79 -287.71,125.69 -511.71,125.69l-856.69 0 0 -1795.47 805.39 0c205.21,0 363.79,41.04 475.8,123.13 112.01,82.08 168.01,195.78 168.01,341.14 0,94.03 -21.79,175.26 -65.4,243.67 -43.61,68.4 -102.17,120.54 -175.7,156.45zm-951.6 -656.61l0 574.55 525.81 0c131.68,0 232.99,-24.38 303.96,-73.12 70.95,-48.74 106.44,-120.12 106.44,-214.16 0,-94.06 -35.5,-165.44 -106.44,-214.18 -70.97,-48.74 -172.28,-73.1 -303.96,-73.1l-525.81 0zm589.94 1379.94c145.36,0 254.78,-23.94 328.32,-71.82 73.53,-47.88 110.3,-123.13 110.3,-225.71 0,-200.08 -146.21,-300.1 -438.62,-300.1l-589.94 0 0 597.64 589.94 0z"/>
  <polygon id="_17" class="fil5" points="57947.36,9939 58203.86,9939 58203.86,11734.47 57947.36,11734.47 "/>
  <path id="_18" class="fil5" d="M59950.59 10803.39c104.29,29.07 186.38,81.65 246.23,157.75 59.85,76.1 89.78,172.28 89.78,288.57 0,155.6 -58.58,275.3 -175.7,359.08 -117.14,83.79 -287.71,125.69 -511.71,125.69l-856.69 0 0 -1795.47 805.39 0c205.21,0 363.79,41.04 475.8,123.13 112.01,82.08 168.01,195.78 168.01,341.14 0,94.03 -21.79,175.26 -65.4,243.67 -43.61,68.4 -102.17,120.54 -175.7,156.45zm-951.6 -656.61l0 574.55 525.81 0c131.68,0 232.99,-24.38 303.96,-73.12 70.95,-48.74 106.44,-120.12 106.44,-214.16 0,-94.06 -35.5,-165.44 -106.44,-214.18 -70.97,-48.74 -172.28,-73.1 -303.96,-73.1l-525.81 0zm589.94 1379.94c145.36,0 254.78,-23.94 328.32,-71.82 73.53,-47.88 110.3,-123.13 110.3,-225.71 0,-200.08 -146.21,-300.1 -438.62,-300.1l-589.94 0 0 597.64 589.94 0z"/>
  <polygon id="_19" class="fil5" points="60684.16,9939 60940.65,9939 60940.65,11511.33 61912.77,11511.33 61912.77,11734.47 60684.16,11734.47 "/>
  <polygon id="_20" class="fil5" points="62207.74,9939 62464.24,9939 62464.24,11734.47 62207.74,11734.47 "/>
  <path id="_21" class="fil5" d="M63813.39 11754.99c-181.25,0 -344.56,-39.75 -489.9,-119.27 -145.36,-79.52 -259.5,-189.38 -342.41,-329.59 -82.94,-140.23 -124.4,-296.68 -124.4,-469.4 0,-172.7 41.46,-329.17 124.4,-469.38 82.92,-140.23 197.06,-250.09 342.41,-329.61 145.34,-79.5 308.65,-119.27 489.9,-119.27 179.56,0 342,39.77 487.36,119.27 145.34,79.52 259.06,188.97 341.12,328.32 82.08,139.37 123.13,296.26 123.13,470.67 0,174.43 -41.04,331.3 -123.13,470.67 -82.06,139.37 -195.78,248.8 -341.12,328.32 -145.36,79.52 -307.8,119.27 -487.36,119.27zm0 -228.28c131.68,0 250.09,-29.93 355.24,-89.78 105.17,-59.85 188.11,-142.35 248.82,-247.53 60.69,-105.15 91.05,-222.71 91.05,-352.67 0,-129.95 -30.37,-247.5 -91.05,-352.67 -60.71,-105.17 -143.65,-187.67 -248.82,-247.53 -105.15,-59.85 -223.56,-89.76 -355.24,-89.76 -131.66,0 -250.92,29.9 -357.81,89.76 -106.88,59.85 -190.65,142.35 -251.36,247.53 -60.71,105.17 -91.05,222.73 -91.05,352.67 0,129.97 30.34,247.53 91.05,352.67 60.71,105.17 144.48,187.67 251.36,247.53 106.88,59.85 226.15,89.78 357.81,89.78z"/>
  <polygon id="_22" class="fil5" points="65488.32,10162.17 64872.73,10162.17 64872.73,9939 66357.84,9939 66357.84,10162.17 65742.25,10162.17 65742.25,11734.47 65488.32,11734.47 "/>
  <polygon id="_23" class="fil5" points="67940.41,11511.33 67940.41,11734.47 66637.42,11734.47 66637.42,9939 67904.52,9939 67904.52,10162.17 66893.92,10162.17 66893.92,10713.63 67794.22,10713.63 67794.22,10931.65 66893.92,10931.65 66893.92,11511.33 "/>
  <path id="_24" class="fil5" d="M69151.07 11754.99c-179.54,0 -341.56,-39.75 -486.06,-119.27 -144.48,-79.52 -257.76,-188.94 -339.85,-328.32 -82.08,-139.37 -123.11,-296.24 -123.11,-470.67 0,-174.41 41.02,-331.3 123.11,-470.67 82.08,-139.35 195.78,-248.8 341.14,-328.32 145.34,-79.5 307.8,-119.27 487.33,-119.27 140.23,0 268.46,23.52 384.75,70.55 116.26,47.01 215.45,116.7 297.54,209.03l-166.73 161.6c-135.08,-141.94 -303.52,-212.89 -505.29,-212.89 -133.37,0 -253.93,29.9 -361.66,89.76 -107.71,59.85 -191.93,142.35 -252.63,247.53 -60.71,105.17 -91.05,222.73 -91.05,352.67 0,129.97 30.34,247.53 91.05,352.67 60.71,105.17 144.92,187.67 252.63,247.53 107.74,59.85 228.3,89.78 361.66,89.78 200.06,0 368.5,-71.82 505.29,-215.47l166.73 161.6c-82.08,92.35 -181.69,162.44 -298.83,210.32 -117.12,47.88 -245.79,71.82 -386.02,71.82z"/>
  <path id="_25" class="fil5" d="M71303.07 11285.61l-954.17 0 -197.49 448.86 -264.19 0 813.09 -1795.47 253.93 0 815.65 1795.47 -269.32 0 -197.49 -448.86zm-89.78 -205.21l-387.29 -879.78 -387.32 879.78 774.61 0z"/>
  <path id="_26" class="fil5" d="M73237.04 11734.47l-387.32 -551.46c-47.88,3.42 -85.48,5.13 -112.84,5.13l-443.75 0 0 546.33 -256.49 0 0 -1795.47 700.24 0c232.55,0 415.51,55.58 548.9,166.73 133.37,111.13 200.06,264.19 200.06,459.12 0,138.52 -34.2,256.49 -102.61,353.97 -68.38,97.48 -165.86,168.42 -292.4,212.89l425.79 602.77 -279.58 0zm-507.86 -764.35c162.44,0 286.42,-35.06 371.9,-105.17 85.5,-70.11 128.26,-170.13 128.26,-300.1 0,-129.95 -42.75,-229.57 -128.26,-298.81 -85.48,-69.26 -209.47,-103.88 -371.9,-103.88l-436.05 0 0 807.96 436.05 0z"/>
  <polygon id="_27" class="fil5" points="73901.35,9939 74157.84,9939 74157.84,11734.47 73901.35,11734.47 "/>
  <path id="_28" class="fil5" d="M75840.44 11285.61l-954.17 0 -197.49 448.86 -264.19 0 813.09 -1795.47 253.93 0 815.65 1795.47 -269.32 0 -197.49 -448.86zm-89.78 -205.21l-387.29 -879.78 -387.32 879.78 774.61 0z"/>
 </g>
</svg>
